<?xml version="1.0" encoding="utf-8"?>
<!-- Generator: Adobe Illustrator 18.0.0, SVG Export Plug-In . SVG Version: 6.00 Build 0)  -->
<!DOCTYPE svg PUBLIC "-//W3C//DTD SVG 1.1//EN" "http://www.w3.org/Graphics/SVG/1.1/DTD/svg11.dtd">
<svg version="1.1" id="Layer_1" xmlns="http://www.w3.org/2000/svg" xmlns:xlink="http://www.w3.org/1999/xlink" x="0px" y="0px"
	 viewBox="0 0 365.6 49.5" enable-background="new 0 0 365.6 49.5" xml:space="preserve">
<g>
	<path d="M3.8,27.5c0.8,0.8,1.8,1.4,2.9,1.9c1.1,0.5,2.2,0.7,3.2,0.7c1.3,0,2.4-0.3,3.1-0.8c0.7-0.6,1-1.3,1-2.2
		c0-0.5-0.1-0.9-0.3-1.2c-0.2-0.3-0.4-0.6-0.8-0.9c-0.3-0.3-0.7-0.5-1.2-0.7c-0.4-0.2-0.9-0.4-1.5-0.6l-3.2-1.4
		C6.6,22,6,21.7,5.5,21.3c-0.6-0.4-1.1-0.8-1.5-1.3c-0.5-0.5-0.8-1.1-1.1-1.8c-0.3-0.7-0.4-1.4-0.4-2.3c0-0.9,0.2-1.8,0.6-2.6
		c0.4-0.8,0.9-1.5,1.6-2.1c0.7-0.6,1.5-1.1,2.5-1.4s2-0.5,3.2-0.5c1.4,0,2.7,0.3,4,0.8c1.3,0.5,2.4,1.3,3.3,2.2L15.4,15
		c-0.8-0.6-1.6-1.1-2.4-1.5c-0.8-0.4-1.7-0.5-2.7-0.5c-1.1,0-2,0.2-2.7,0.7s-1,1.2-1,2c0,0.5,0.1,0.8,0.3,1.2
		c0.2,0.3,0.5,0.6,0.8,0.9c0.3,0.3,0.8,0.5,1.2,0.7c0.5,0.2,0.9,0.4,1.4,0.6l3.2,1.3c0.7,0.3,1.3,0.6,1.9,1s1.1,0.8,1.5,1.3
		c0.4,0.5,0.7,1.1,1,1.7c0.2,0.7,0.4,1.4,0.4,2.3c0,1-0.2,1.9-0.6,2.7c-0.4,0.8-0.9,1.6-1.7,2.2c-0.7,0.6-1.6,1.1-2.7,1.5
		s-2.2,0.6-3.5,0.6c-1.6,0-3.1-0.3-4.6-0.9s-2.8-1.5-3.9-2.6L3.8,27.5z"/>
	<path d="M23.2,18.9h-2.5v-3.1l2.7-0.2l0.5-4.8h3.5v4.8h4.5v3.3h-4.5v8.4c0,2.1,0.8,3.1,2.5,3.1c0.3,0,0.6,0,1-0.1
		c0.3-0.1,0.6-0.2,0.9-0.3l0.7,3.1c-0.5,0.2-1,0.3-1.6,0.5c-0.6,0.1-1.3,0.2-2,0.2c-1,0-1.9-0.2-2.6-0.5c-0.7-0.3-1.3-0.8-1.7-1.3
		c-0.4-0.6-0.8-1.2-1-2c-0.2-0.8-0.3-1.6-0.3-2.6V18.9z"/>
	<path d="M36.2,37.2c0.2,0.1,0.5,0.1,0.7,0.1c0.9,0,1.7-0.3,2.2-0.8c0.6-0.6,1-1.3,1.3-2.2l0.3-1.1l-6.9-17.5H38l3.1,8.7
		c0.3,0.8,0.5,1.6,0.8,2.4c0.3,0.9,0.5,1.7,0.8,2.5h0.1c0.2-0.8,0.4-1.6,0.7-2.5c0.2-0.9,0.5-1.7,0.7-2.5l2.7-8.7h4l-6.4,18.5
		c-0.4,1-0.8,1.9-1.2,2.7s-0.9,1.5-1.5,2c-0.6,0.6-1.2,1-1.9,1.3c-0.7,0.3-1.6,0.5-2.5,0.5c-0.5,0-0.9,0-1.3-0.1
		c-0.4-0.1-0.7-0.1-1-0.3l0.8-3.2C35.8,37.1,36,37.1,36.2,37.2z"/>
	<path d="M54.1,7.9h4.1V29c0,0.5,0.1,0.9,0.3,1.1c0.2,0.2,0.4,0.3,0.6,0.3c0.1,0,0.2,0,0.3,0c0.1,0,0.2,0,0.4-0.1l0.5,3.1
		c-0.6,0.2-1.3,0.4-2.2,0.4c-1.5,0-2.5-0.4-3.1-1.3c-0.6-0.9-0.9-2.1-0.9-3.6V7.9z"/>
	<path d="M63.1,24.5c0-1.4,0.2-2.7,0.7-3.9c0.5-1.2,1.1-2.1,1.8-2.9s1.6-1.4,2.6-1.8c1-0.4,2-0.6,3-0.6c1.2,0,2.3,0.2,3.2,0.6
		s1.7,1,2.3,1.7c0.6,0.7,1.1,1.6,1.4,2.7c0.3,1,0.5,2.2,0.5,3.4c0,0.8-0.1,1.5-0.2,1.9H67.1c0.2,1.6,0.8,2.8,1.7,3.7
		c0.9,0.9,2.1,1.3,3.5,1.3c0.8,0,1.5-0.1,2.1-0.3c0.7-0.2,1.3-0.5,2-1l1.4,2.6c-0.8,0.6-1.8,1-2.8,1.4c-1,0.4-2.1,0.5-3.2,0.5
		c-1.2,0-2.4-0.2-3.4-0.6c-1.1-0.4-2-1-2.8-1.8s-1.4-1.8-1.9-2.9C63.3,27.3,63.1,26,63.1,24.5z M75,22.9c0-1.4-0.3-2.5-0.9-3.3
		c-0.6-0.8-1.5-1.2-2.7-1.2c-1.1,0-2,0.4-2.8,1.1c-0.8,0.8-1.3,1.9-1.5,3.4H75z"/>
	<path d="M81.3,36.5c0-0.7,0.2-1.4,0.6-2.1s1.1-1.2,1.9-1.7v-0.1c-0.5-0.3-0.8-0.7-1.1-1.2c-0.3-0.5-0.5-1.1-0.5-1.8
		c0-0.7,0.2-1.3,0.6-1.9c0.4-0.6,0.8-1,1.3-1.4v-0.1c-0.6-0.5-1.1-1.1-1.6-1.9c-0.5-0.8-0.7-1.7-0.7-2.8c0-1,0.2-1.9,0.6-2.7
		s0.9-1.5,1.5-2c0.6-0.5,1.4-0.9,2.2-1.2c0.8-0.3,1.7-0.4,2.7-0.4c0.5,0,0.9,0,1.4,0.1c0.4,0.1,0.8,0.2,1.2,0.3h6.3v3.1h-3.2
		c0.3,0.3,0.5,0.8,0.7,1.3c0.2,0.5,0.3,1.1,0.3,1.7c0,1-0.2,1.8-0.5,2.6c-0.3,0.7-0.8,1.4-1.4,1.9c-0.6,0.5-1.3,0.9-2.1,1.2
		s-1.7,0.4-2.6,0.4c-0.4,0-0.8,0-1.2-0.1c-0.4-0.1-0.8-0.2-1.2-0.4c-0.3,0.2-0.5,0.5-0.6,0.7c-0.2,0.2-0.2,0.6-0.2,1
		c0,0.5,0.2,0.9,0.6,1.2c0.4,0.3,1.2,0.4,2.2,0.4h3.1c2.1,0,3.8,0.3,4.8,1c1.1,0.7,1.6,1.8,1.6,3.3c0,0.9-0.2,1.7-0.7,2.4
		c-0.4,0.8-1.1,1.4-1.9,2c-0.8,0.6-1.8,1-3,1.3c-1.2,0.3-2.5,0.5-3.9,0.5c-1.1,0-2-0.1-2.9-0.3c-0.9-0.2-1.7-0.5-2.3-0.9
		c-0.6-0.4-1.2-0.9-1.5-1.4C81.5,38,81.3,37.3,81.3,36.5z M84.8,35.9c0,0.8,0.4,1.4,1.2,1.9c0.8,0.4,1.9,0.7,3.3,0.7
		c1.4,0,2.6-0.3,3.5-0.8c0.9-0.6,1.3-1.2,1.3-2c0-0.7-0.3-1.2-0.8-1.4C92.8,34,92,33.8,91,33.8h-2.4c-1,0-1.8-0.1-2.4-0.3
		C85.2,34.3,84.8,35.1,84.8,35.9z M88.9,25.1c0.8,0,1.6-0.3,2.2-0.9c0.6-0.6,0.9-1.5,0.9-2.6c0-1.1-0.3-2-0.9-2.6
		c-0.6-0.6-1.3-0.9-2.2-0.9s-1.6,0.3-2.2,0.9c-0.6,0.6-0.9,1.5-0.9,2.6c0,1.2,0.3,2,0.9,2.6C87.3,24.8,88,25.1,88.9,25.1z"/>
	<path d="M101.4,15.7h4.1v10.5c0,1.5,0.2,2.5,0.6,3.1c0.4,0.6,1.1,0.9,2.1,0.9c0.8,0,1.4-0.2,2-0.6c0.6-0.4,1.2-1,1.9-1.9V15.7h4.1
		v17.7H113l-0.3-2.6h-0.1c-0.8,0.9-1.6,1.6-2.5,2.2c-0.9,0.6-2,0.8-3.2,0.8c-1.9,0-3.3-0.6-4.1-1.8c-0.9-1.2-1.3-2.9-1.3-5.2V15.7z"
		/>
	<path d="M124.1,12.6c-0.7,0-1.4-0.2-1.8-0.6c-0.5-0.4-0.7-1-0.7-1.7c0-0.7,0.2-1.3,0.7-1.7c0.5-0.4,1.1-0.7,1.8-0.7
		c0.7,0,1.4,0.2,1.8,0.7c0.5,0.4,0.7,1,0.7,1.7c0,0.7-0.2,1.3-0.7,1.7S124.8,12.6,124.1,12.6z M122,15.7h4.1v17.7H122V15.7z"/>
	<path d="M130.7,24.5c0-1.4,0.2-2.7,0.6-3.9c0.4-1.2,1-2.1,1.7-2.9c0.7-0.8,1.5-1.4,2.4-1.8s1.8-0.6,2.8-0.6c1,0,1.9,0.2,2.6,0.5
		c0.7,0.3,1.4,0.8,2.1,1.4l-0.1-2.8V7.9h4.1v25.4h-3.4l-0.3-1.9H143c-0.6,0.6-1.4,1.2-2.3,1.7c-0.9,0.5-1.8,0.7-2.7,0.7
		c-2.2,0-4-0.8-5.3-2.4S130.7,27.4,130.7,24.5z M135,24.5c0,1.9,0.3,3.4,1,4.4c0.7,1,1.7,1.5,3,1.5c1.3,0,2.6-0.7,3.7-2v-8.2
		c-0.6-0.6-1.2-0.9-1.8-1.2c-0.6-0.2-1.2-0.3-1.8-0.3c-1.2,0-2.1,0.5-2.9,1.5S135,22.6,135,24.5z"/>
	<path d="M151.3,24.5c0-1.4,0.2-2.7,0.7-3.9c0.5-1.2,1.1-2.1,1.8-2.9s1.6-1.4,2.6-1.8c1-0.4,2-0.6,3-0.6c1.2,0,2.3,0.2,3.2,0.6
		s1.7,1,2.3,1.7c0.6,0.7,1.1,1.6,1.4,2.7c0.3,1,0.5,2.2,0.5,3.4c0,0.8-0.1,1.5-0.2,1.9h-11.2c0.2,1.6,0.8,2.8,1.7,3.7
		c0.9,0.9,2.1,1.3,3.5,1.3c0.8,0,1.5-0.1,2.1-0.3c0.7-0.2,1.3-0.5,2-1l1.4,2.6c-0.8,0.6-1.8,1-2.8,1.4c-1,0.4-2.1,0.5-3.2,0.5
		c-1.2,0-2.4-0.2-3.4-0.6c-1.1-0.4-2-1-2.8-1.8s-1.4-1.8-1.9-2.9C151.5,27.3,151.3,26,151.3,24.5z M163.1,22.9
		c0-1.4-0.3-2.5-0.9-3.3c-0.6-0.8-1.5-1.2-2.7-1.2c-1.1,0-2,0.4-2.8,1.1c-0.8,0.8-1.3,1.9-1.5,3.4H163.1z"/>
</g>
<rect x="197.2" y="0" width="0.7" height="49.5"/>
<g>
	<g>
		<g>
			<path fill-rule="evenodd" clip-rule="evenodd" fill="#3EA57C" d="M232.6,25.3l-5-14.2v18.9L232.6,25.3z"/>
		</g>
		<g>
			<path fill-rule="evenodd" clip-rule="evenodd" fill="#C5FA59" d="M227.6,11l10.9,8.7l-5.9,5.5L227.6,11z"/>
		</g>
		<g>
			<path fill-rule="evenodd" clip-rule="evenodd" fill="#439A7F" d="M232.6,25.2l5.8,16.4l-10.8-11.7L232.6,25.2z"/>
		</g>
		<g>
			<path fill-rule="evenodd" clip-rule="evenodd" fill="#3F7675" d="M245.5,25.2l-7.1,16.4l-5.8-16.4l5.9-5.5L245.5,25.2z"/>
		</g>
		<g>
			<path fill-rule="evenodd" clip-rule="evenodd" fill="#6EA967" d="M245.4,25.2l8,6.4l-15,10L245.4,25.2z"/>
		</g>
		<g>
			<path fill-rule="evenodd" clip-rule="evenodd" fill="#C0F85E" d="M245.4,25.2l8-19.4v25.7L245.4,25.2z"/>
		</g>
		<g>
			<path fill-rule="evenodd" clip-rule="evenodd" fill="#2BDFDD" d="M245.4,25.2l-6.9-5.5l14.9-13.9L245.4,25.2z"/>
		</g>
	</g>
	<g>
		<path fill-rule="evenodd" clip-rule="evenodd" fill="#4A4740" d="M363.5,19.1c-0.9-0.1-1.9-0.3-2.9-0.3c-0.5,0-0.9,0-1.3,0.7
			c-0.4,0.7-0.1,1.5,0.5,2c0.2,0.2,0.4,0.3,0.7,0.4c0.7,0.4,1.5,0.8,2.2,1.1c2.1,1,2.9,2.2,2.8,4.2c-0.1,2.2-1.3,3.8-3.3,4.4
			c-3.5,1.1-6-0.7-6-0.7s0.2-1,0.3-1.4c0.2-0.8,0.4-0.9,1.2-0.7c2.3,0.8,4.1,0.1,4.3-0.1c0.6-0.5,1.2-1.7-0.1-2.5
			c-0.3-0.4-2.4-1.1-3.8-2.1c-1.3-1-2-2.5-1.6-4.3c0.4-1.8,1.4-3,3.1-3.5c1.1-0.3,2.3-0.3,3.2-0.1c1.3,0.2,2.2,0.6,2.2,0.6
			s-0.1,1-0.2,1.4C364.6,19.1,364.3,19.2,363.5,19.1z M352.1,14.2c-1.1,0-1.6-0.5-1.6-1.7c0-1,0.8-1.6,2.1-1.6
			c1.1,0,1.7,0.6,1.7,1.7C354.3,13.6,353.5,14.2,352.1,14.2z M347.7,29.5c0.1,0,0.3-0.1,0.5-0.1c0.1,0.6,0.4,1.9,0.4,1.9
			s-0.3,0.1-0.4,0.2c-1.3,0.5-2.7,0.7-4.1,0.3c-1-0.3-1.6-1-1.8-2c-0.1-0.6-0.2-1.1-0.2-1.7c0-2.8,0-5.5,0-8.3c0-0.3,0-0.6,0-0.9
			c-0.7,0-1.3,0-1.9,0c0-0.8,0-1.4,0-2.2c0.7,0,1.4,0,2,0v-1.6l0,0c0-0.6,0.1-1.1,0.6-1.5c0.6-0.4,1.6-0.4,2.5-0.7v3.7h3v0.6h0
			c0,0.5,0,1,0,1.6c-1,0-2,0-3,0v9.9C345.6,29.7,346.4,29.8,347.7,29.5z M333.8,25c-0.2,0-0.4,0-0.6-0.1c-0.1-0.1-0.2-1.1-0.1-1.4
			c0.1-0.4,0.2-0.6,0.6-0.6c0.4,0,1,0,1.9,0c0-1,0-2-0.2-2.9c-0.4-1.4-2.3-1.8-3.3-0.8c-0.4,0.4-0.5,0.7-0.6,1
			c-0.5,2.3-0.4,4.4,0,6.7c0.4,2.2,1.8,3,4.1,2.6c0.5-0.1,0.9-0.2,1.4-0.3c0.6-0.2,1,0.1,1.1,0.7c0.3,1.1,0.2,1.4-0.9,1.7
			c-1.4,0.5-2.9,0.7-4.3,0.5c-2-0.2-3.4-1.4-4-3.2c-1.2-3.5-1.4-6.9,0.5-10.2c1.5-2.8,6.1-3.3,8-0.9c0.6,0.8,1,1.9,1.1,3
			c0.2,1.4,0,2.9,0,4.4C336.6,25,335.6,25,333.8,25z M325.7,20.9v0.2v10.7h-3.2V20.2c0,0-0.1-1.4-1.6-1.4c-1.6,0-2.7,0.9-3,1.3v11.6
			h-3V18.1v-1.7c0,0,1.4-0.5,2.2,0c0.6,0.3,0.8,1.3,0.8,1.6c0.3-0.3,1.2-1.1,2.3-1.5c1.2-0.4,2.7-0.3,2.7-0.3s0.9,0.1,1.4,0.6
			c0.4,0.3,0.9,1.3,1,1.6c0.2,0.9,0.3,1.8,0.3,2.3l0,0v0C325.7,20.9,325.7,21,325.7,20.9z M308.8,36.2c-3.8,1.1-6.7-0.3-6.7-0.3
			s0.2-1.5,0.3-2.2c1.1,0.2,2.1,0.4,3.2,0.4c3,0,3.4-0.6,3.4-1.2c0-0.6,0-1.9,0-3c-0.1,0.1-0.3,0.3-0.4,0.4
			c-2.2,2.1-5.5,1.5-6.8-1.3c-0.4-1-0.7-2.1-0.8-3.2c-0.3-2.3-0.2-4.6,0.6-6.8c1.2-2.9,4.1-3.8,6.6-2.2c0.3,0.2,0.8,0.6,1.1,0.9
			c0.1-0.4,0.3-1.2,0.7-1.4c0.7-0.4,2,0,2,0v0c0,0,0,0,0,0c0,5.1,0,15.8,0,15.8s0,0.1,0,0.2C312,34.5,310.9,35.6,308.8,36.2z
			 M308.9,20.1c-0.1-0.6-0.6-0.8-1.4-1.1c-0.6-0.2-1.6-0.3-1.9-0.1c-0.6,0.4-0.9,0.9-1.1,1.5c-0.5,2.4-0.5,4.2-0.1,6.6
			c0.4,2.1,2.3,2.8,3.9,1.4c0.3-0.2,0.5-0.6,0.5-1V20.1z M295.5,30.7c-1,0.4-1.9,1-3,1.2c-2.5,0.5-4.4-1.2-4.6-3.8
			c-0.3-3.6,1.2-5.1,4.9-5.3c0.6,0,0.5,0.4,0.6,0.9c0.1,0.5,0,0.8-0.4,0.9c-0.4,0.2-1.1,0.2-1.2,0.2c-0.8,0.1-0.9,0.7-1.1,1.2
			c-0.1,0.6,0,1.3,0.1,1.9c0.2,0.8,1.1,1.6,1.9,1.6c0.4,0,0.7-0.1,1.1-0.2c1.1-0.4,1.4-0.6,1.5-1.6c0-0.1,0-4.4,0-6.5
			c0,0-0.1-1-0.3-1.6c-0.2-0.6-0.5-0.9-1.3-0.9c-0.7,0-1.3,0-2,0.1c-0.5,0.1-1,0.2-1.5,0.3c-0.5,0.1-1.1,0.1-1.3-0.1
			c-0.7-0.5-0.4-1.9-0.4-1.9s0.3-0.1,0.3-0.1c2.3-0.9,4.6-1.2,7.1-0.6c1.8,0.4,2.4,1.9,2.4,3.5c0.1,3.9,0,7.9,0,11.8
			C296.5,32.4,296,32.1,295.5,30.7z M285.6,20.9c0,0.1,0,0.2,0,0.2v10.7h-3.2V20.1c0,0-0.1-1.3-1.3-1.3c-1.2,0-3.2,1.1-3.2,1.3v0.1
			v11.6h-3V20.1c0,0-0.1-1.3-1.3-1.3c-1.2,0-3.2,1.1-3.2,1.3v0.1v11.6h-3V18.1v-1.7c0,0,1.4-0.5,2.2,0c0.7,0.4,0.9,1.7,0.9,1.7
			s1.1-1.1,2.5-1.6c1.2-0.4,2.7-0.3,2.7-0.3s0.7,0.1,1.3,0.6c0.6,0.5,1,1.3,1,1.3s1.1-1.1,2.5-1.6c1.2-0.4,2.7-0.3,2.7-0.3
			s0.9,0.1,1.4,0.6c0.4,0.3,0.6,0.8,0.7,1.2C285.6,19.2,285.6,21.2,285.6,20.9z M353.3,16.5c0.9,0.3,0.6,1.5,0.6,1.5v13.7h-3.2V18.1
			v-1.3C350.7,16.7,352.3,16.1,353.3,16.5z"/>
	</g>
</g>
</svg>
